<mxfile host="app.diagrams.net" modified="2023-07-19T13:24:10.075Z" agent="Mozilla/5.0 (Macintosh; Intel Mac OS X 10_15_7) AppleWebKit/537.36 (KHTML, like Gecko) Chrome/114.0.0.0 Safari/537.36" version="21.6.3" etag="Bxy0jz22c3VsLjqium8h" type="github">
  <diagram name="第 1 页" id="gTYSh5Z5F53LTJaMj2N2">
    <mxGraphModel>
      <root>
        <mxCell id="0" />
        <mxCell id="1" parent="0" />
      </root>
    </mxGraphModel>
  </diagram>
</mxfile>
